<svg width="369" height="96" viewBox="0 0 369 96" fill="none" xmlns="http://www.w3.org/2000/svg">
<path d="M1.625 58.75C1.70833 58.4167 1.875 58.2917 2.125 58.375C2.45833 58.375 2.75 58.3333 3 58.25C2.33333 57.5833 1.91667 56.7083 1.75 55.625C1.58333 54.4583 1.16667 53.5 0.5 52.75C0.666667 52.3333 0.791667 51.9167 0.875 51.5C1.04167 51.0833 1.41667 50.9167 2 51C1.75 49.1667 1.79167 47.4583 2.125 45.875C2.45833 44.2917 2.95833 42.7917 3.625 41.375C4.375 39.9583 5.20833 38.5833 6.125 37.25C7.125 35.8333 8.08333 34.4167 9 33C9.75 32.8333 10.2083 32.9167 10.375 33.25C10.5417 33.5 10.8333 33.4167 11.25 33C12.5833 32.0833 13.5 31.0833 14 30C14.5 28.8333 14.75 27.5833 14.75 26.25C15.5 24.0833 16.3333 21.9583 17.25 19.875C18.25 17.7083 19.375 15.7083 20.625 13.875C21.875 12.0417 23.2083 10.4583 24.625 9.125C26.0417 7.70833 27.5833 6.625 29.25 5.875C30.4167 4.875 31.875 3.95833 33.625 3.125C35.4583 2.29167 37.375 1.66667 39.375 1.25C41.4583 0.75 43.5833 0.5 45.75 0.5C47.9167 0.416667 49.9167 0.625 51.75 1.125C52.1667 1.29167 52.4167 1.20833 52.5 0.875C52.5833 0.458333 52.7917 0.25 53.125 0.25C57.2917 0.75 61 1.58333 64.25 2.75C67.5833 3.91667 70.4167 5.54167 72.75 7.625C74.3333 10.125 75.8333 12.8333 77.25 15.75C78.6667 18.5833 79.75 21.5833 80.5 24.75C81.3333 27.8333 81.7083 31.0417 81.625 34.375C81.5417 37.7083 80.8333 41.0417 79.5 44.375C76.5833 48.0417 73.0417 51 68.875 53.25C64.7083 55.4167 60.2083 57.25 55.375 58.75C50.625 60.1667 45.6667 61.3333 40.5 62.25C35.4167 63.1667 30.4583 64.1667 25.625 65.25C25.7083 67.5 25.7083 69.9167 25.625 72.5C25.5417 75 25.25 77.5417 24.75 80.125C24.3333 82.625 23.6667 85.0833 22.75 87.5C21.9167 89.9167 20.75 92.1667 19.25 94.25C17.5833 94.1667 15.8333 94.3333 14 94.75C12.25 95.1667 10.6667 95.5833 9.25 96C8.58333 95.5833 7.91667 95.1667 7.25 94.75C6.66667 94.4167 5.91667 94.2083 5 94.125C5.25 93.125 5 92.0833 4.25 91C3.58333 89.9167 2.875 88.875 2.125 87.875C1.45833 86.7917 1 85.75 0.75 84.75C0.583333 83.6667 1.08333 82.7083 2.25 81.875C1.58333 81.2917 1.25 80.375 1.25 79.125C1.58333 79.4583 2 79.625 2.5 79.625C2.33333 78.125 2.5 76.3333 3 74.25C3.58333 72.1667 4.04167 70.125 4.375 68.125C4.79167 66.0417 4.875 64.1667 4.625 62.5C4.375 60.75 3.375 59.5 1.625 58.75ZM34.125 29.5C33.7917 30.4167 33.5 31.25 33.25 32C33.0833 32.6667 32.875 33.2917 32.625 33.875C32.375 34.4583 32.0833 35.0417 31.75 35.625C31.5 36.2083 31.2083 36.875 30.875 37.625C31.0417 38.125 31.375 38.5 31.875 38.75C32.375 39 32.7083 39.375 32.875 39.875C34.0417 39.2917 35.2083 38.875 36.375 38.625C37.5417 38.2917 38.7083 38.0417 39.875 37.875C41.0417 37.7083 42.2083 37.5 43.375 37.25C44.5417 37 45.75 36.5833 47 36C48.25 35.4167 49.5417 34.9583 50.875 34.625C52.2917 34.2083 53.6667 33.7917 55 33.375C56.3333 32.9583 57.625 32.5 58.875 32C60.125 31.4167 61.2083 30.6667 62.125 29.75C60.9583 28.6667 59.2083 27.7083 56.875 26.875C54.5417 26.0417 52 25.5417 49.25 25.375C46.5833 25.125 43.875 25.2917 41.125 25.875C38.4583 26.4583 36.125 27.6667 34.125 29.5ZM151.625 22.875C151.792 24.7083 152.083 26.2917 152.5 27.625C152.917 28.9583 153.375 30.25 153.875 31.5C154.292 32.6667 154.667 33.8333 155 35C155.417 36.0833 155.708 37.4167 155.875 39C155.208 41.1667 154.708 43.1667 154.375 45C154.125 46.8333 153.833 48.75 153.5 50.75C152.167 53.6667 150.875 56.25 149.625 58.5C148.375 60.75 147.375 62.7083 146.625 64.375C146.208 64.7917 145.833 65.2917 145.5 65.875C145.25 66.375 144.958 66.9167 144.625 67.5C144.458 67.75 144.25 68.125 144 68.625C143.75 69.125 143.542 69.4583 143.375 69.625L140.875 68.75L140.375 71.875L138.625 72.375L137.375 73.875C135.792 76.625 134.125 78.9583 132.375 80.875C130.625 82.7083 128.625 84.375 126.375 85.875C124.208 87.2917 121.708 88.625 118.875 89.875C116.125 91.125 113 92.5 109.5 94C108.083 93.8333 106.833 93.75 105.75 93.75C104.75 93.6667 103.792 93.5833 102.875 93.5C101.292 93.5 99.3333 93.375 97 93.125C96.75 92.4583 96.375 92 95.875 91.75C95.375 91.5 94.9167 91.375 94.5 91.375C93.0833 90.7083 92 89.75 91.25 88.5C90.5833 87.1667 89.9167 85.75 89.25 84.25C88.8333 83.3333 88.4167 82.5 88 81.75C87.5833 80.9167 87.125 80.0833 86.625 79.25L88.75 78.625L86 75.625C85.8333 75.375 85.625 75.1667 85.375 75C85.125 74.75 84.9167 74.5 84.75 74.25L84.625 72.25C84.375 66.5 84.25 61.25 84.25 56.5C84.3333 51.6667 85 47.375 86.25 43.625V42.25C86.5 40.4167 86.75 38.9167 87 37.75C87.25 36.5 87.4583 35.3333 87.625 34.25C87.875 32.4167 88.25 30.7083 88.75 29.125C89.9167 28.875 90.7917 28.4167 91.375 27.75C91.9583 27 92.4583 26.3333 92.875 25.75C94.0417 25.6667 94.8333 25.8333 95.25 26.25C95.6667 26.6667 96.0833 27.3333 96.5 28.25C96.9167 29 97.4167 29.8333 98 30.75C98.6667 31.6667 99.625 32.375 100.875 32.875C101.042 33.5417 101.25 34.25 101.5 35C101.833 35.6667 102.167 36.4167 102.5 37.25C103.167 38.6667 103.75 40.1667 104.25 41.75C104.833 43.25 105.167 44.7083 105.25 46.125C104.417 47.7083 103.75 49.5417 103.25 51.625C102.833 53.7083 102.542 55.8333 102.375 58C102.292 60.0833 102.333 62.125 102.5 64.125C102.75 66.0417 103.125 67.6667 103.625 69L104.375 70.625L106.5 70.375C109 69.7083 111.25 69 113.25 68.25C115.333 67.4167 117.25 66.4583 119 65.375C120.75 64.2917 122.417 63.0417 124 61.625C125.583 60.125 127.25 58.4167 129 56.5C130.75 54.5833 132.25 52.4167 133.5 50C134.833 47.5 135.917 44.9167 136.75 42.25C137.667 39.5833 138.333 36.9583 138.75 34.375C139.25 31.7083 139.583 29.2083 139.75 26.875C141.167 26.375 141.875 25.375 141.875 23.875L141.625 22.5C141.292 22 141.292 21.4167 141.625 20.75C142.125 19.1667 143.292 17.9583 145.125 17.125C146.458 17.9583 147.625 18.875 148.625 19.875C149.708 20.875 150.708 21.875 151.625 22.875ZM226.5 22.875C226.667 24.7083 226.958 26.2917 227.375 27.625C227.792 28.9583 228.25 30.25 228.75 31.5C229.167 32.6667 229.542 33.8333 229.875 35C230.292 36.0833 230.583 37.4167 230.75 39C230.083 41.1667 229.583 43.1667 229.25 45C229 46.8333 228.708 48.75 228.375 50.75C227.042 53.6667 225.75 56.25 224.5 58.5C223.25 60.75 222.25 62.7083 221.5 64.375C221.083 64.7917 220.708 65.2917 220.375 65.875C220.125 66.375 219.833 66.9167 219.5 67.5C219.333 67.75 219.125 68.125 218.875 68.625C218.625 69.125 218.417 69.4583 218.25 69.625L215.75 68.75L215.25 71.875L213.5 72.375L212.25 73.875C210.667 76.625 209 78.9583 207.25 80.875C205.5 82.7083 203.5 84.375 201.25 85.875C199.083 87.2917 196.583 88.625 193.75 89.875C191 91.125 187.875 92.5 184.375 94C182.958 93.8333 181.708 93.75 180.625 93.75C179.625 93.6667 178.667 93.5833 177.75 93.5C176.167 93.5 174.208 93.375 171.875 93.125C171.625 92.4583 171.25 92 170.75 91.75C170.25 91.5 169.792 91.375 169.375 91.375C167.958 90.7083 166.875 89.75 166.125 88.5C165.458 87.1667 164.792 85.75 164.125 84.25C163.708 83.3333 163.292 82.5 162.875 81.75C162.458 80.9167 162 80.0833 161.5 79.25L163.625 78.625L160.875 75.625C160.708 75.375 160.5 75.1667 160.25 75C160 74.75 159.792 74.5 159.625 74.25L159.5 72.25C159.25 66.5 159.125 61.25 159.125 56.5C159.208 51.6667 159.875 47.375 161.125 43.625V42.25C161.375 40.4167 161.625 38.9167 161.875 37.75C162.125 36.5 162.333 35.3333 162.5 34.25C162.75 32.4167 163.125 30.7083 163.625 29.125C164.792 28.875 165.667 28.4167 166.25 27.75C166.833 27 167.333 26.3333 167.75 25.75C168.917 25.6667 169.708 25.8333 170.125 26.25C170.542 26.6667 170.958 27.3333 171.375 28.25C171.792 29 172.292 29.8333 172.875 30.75C173.542 31.6667 174.5 32.375 175.75 32.875C175.917 33.5417 176.125 34.25 176.375 35C176.708 35.6667 177.042 36.4167 177.375 37.25C178.042 38.6667 178.625 40.1667 179.125 41.75C179.708 43.25 180.042 44.7083 180.125 46.125C179.292 47.7083 178.625 49.5417 178.125 51.625C177.708 53.7083 177.417 55.8333 177.25 58C177.167 60.0833 177.208 62.125 177.375 64.125C177.625 66.0417 178 67.6667 178.5 69L179.25 70.625L181.375 70.375C183.875 69.7083 186.125 69 188.125 68.25C190.208 67.4167 192.125 66.4583 193.875 65.375C195.625 64.2917 197.292 63.0417 198.875 61.625C200.458 60.125 202.125 58.4167 203.875 56.5C205.625 54.5833 207.125 52.4167 208.375 50C209.708 47.5 210.792 44.9167 211.625 42.25C212.542 39.5833 213.208 36.9583 213.625 34.375C214.125 31.7083 214.458 29.2083 214.625 26.875C216.042 26.375 216.75 25.375 216.75 23.875L216.5 22.5C216.167 22 216.167 21.4167 216.5 20.75C217 19.1667 218.167 17.9583 220 17.125C221.333 17.9583 222.5 18.875 223.5 19.875C224.583 20.875 225.583 21.875 226.5 22.875ZM260.625 92.625C258.292 93.375 255.75 94.125 253 94.875C250.25 95.625 247.5 96 244.75 96C240.583 96 237.292 94.9583 234.875 92.875C234.458 91.9583 234.083 91.3333 233.75 91C233.5 90.6667 233.25 90.3333 233 90C232.833 89.5833 232.708 89.0417 232.625 88.375C231.625 87.2083 230.833 85.875 230.25 84.375C229.667 82.7917 229.25 81.2083 229 79.625C228.833 77.9583 228.792 76.2917 228.875 74.625C229.042 72.9583 229.333 71.375 229.75 69.875C229.917 69.5417 230 69.2083 230 68.875C230.083 68.5417 230.167 68.1667 230.25 67.75C230.583 66.4167 230.917 65.125 231.25 63.875C231.667 62.625 232.208 61.5417 232.875 60.625C232.542 59.875 232.542 59.0417 232.875 58.125C233.208 57.2083 233.583 56.375 234 55.625C235.167 52.4583 236.125 49.7917 236.875 47.625C237.708 45.375 238.542 43.1667 239.375 41C240.792 37.25 242.125 33.5417 243.375 29.875C244.625 26.2083 245.75 22.25 246.75 18C247.417 17.5833 247.917 17.2917 248.25 17.125C248.75 16.9583 249.167 16.8333 249.5 16.75C251 17.5 252.75 18.25 254.75 19C256.75 19.6667 258.417 20 259.75 20C260.417 20.4167 260.833 20.75 261 21C261.167 21.1667 261.333 21.3333 261.5 21.5C262.417 22.5833 263.208 23.7083 263.875 24.875C264.542 25.9583 264.75 27.4167 264.5 29.25C264 30 263.625 30.375 263.375 30.375C262.958 32.0417 262.5 33.4583 262 34.625C261.583 35.7917 261.125 36.9583 260.625 38.125C260.042 39.375 259.5 40.625 259 41.875C258.5 43.125 258.083 44.6667 257.75 46.5C257.417 46.9167 257.167 47.2917 257 47.625C256.917 47.9583 256.792 48.3333 256.625 48.75C256.458 49.1667 256.25 49.625 256 50.125C255.833 50.5417 255.542 50.9167 255.125 51.25C254.875 53.4167 254.458 55.1667 253.875 56.5C253.375 57.8333 252.833 59.1667 252.25 60.5C251.25 62.9167 250.333 65.3333 249.5 67.75C248.75 70.1667 248.292 72.9167 248.125 76C248.542 75.8333 248.917 75.75 249.25 75.75C249.667 75.75 250.042 75.75 250.375 75.75C251.125 75.75 252 75.875 253 76.125C255.5 74.7917 258.208 74 261.125 73.75C264.125 73.5 267.083 73.3333 270 73.25C271.167 73.25 272.333 73.25 273.5 73.25C274.667 73.25 275.75 73.1667 276.75 73C277.5 73.4167 277.958 73.6667 278.125 73.75C278.375 73.75 278.708 73.75 279.125 73.75C279.708 73.75 280.208 73.7917 280.625 73.875C281.625 74.7917 282.583 75.4583 283.5 75.875C284.417 76.2917 285.375 76.6667 286.375 77C287.292 77.3333 288.167 77.7083 289 78.125C289.917 78.4583 290.792 78.9583 291.625 79.625L292.5 85C293.083 85.75 293.333 86.25 293.25 86.5C293.25 87.1667 293.083 87.6667 292.75 88L293 89.375C291.75 89.625 290.875 89.9167 290.375 90.25C289.958 90.5833 289.542 90.9583 289.125 91.375C288.458 91.4583 287.958 91.5 287.625 91.5C287.375 91.5 287.125 91.5 286.875 91.5C285.708 91.5 284.292 91.7083 282.625 92.125C280.375 91.375 278.042 91 275.625 91C274.708 91 273.75 91.0417 272.75 91.125C271.75 91.2083 270.75 91.2917 269.75 91.375C268.75 91.5417 267.708 91.6667 266.625 91.75C265.625 91.8333 264.583 91.875 263.5 91.875L260.625 92.625ZM364.5 22.875C364.667 24.7083 364.958 26.2917 365.375 27.625C365.792 28.9583 366.25 30.25 366.75 31.5C367.167 32.6667 367.542 33.8333 367.875 35C368.292 36.0833 368.583 37.4167 368.75 39C368.083 41.1667 367.583 43.1667 367.25 45C367 46.8333 366.708 48.75 366.375 50.75C365.042 53.6667 363.75 56.25 362.5 58.5C361.25 60.75 360.25 62.7083 359.5 64.375C359.083 64.7917 358.708 65.2917 358.375 65.875C358.125 66.375 357.833 66.9167 357.5 67.5C357.333 67.75 357.125 68.125 356.875 68.625C356.625 69.125 356.417 69.4583 356.25 69.625L353.75 68.75L353.25 71.875L351.5 72.375L350.25 73.875C348.667 76.625 347 78.9583 345.25 80.875C343.5 82.7083 341.5 84.375 339.25 85.875C337.083 87.2917 334.583 88.625 331.75 89.875C329 91.125 325.875 92.5 322.375 94C320.958 93.8333 319.708 93.75 318.625 93.75C317.625 93.6667 316.667 93.5833 315.75 93.5C314.167 93.5 312.208 93.375 309.875 93.125C309.625 92.4583 309.25 92 308.75 91.75C308.25 91.5 307.792 91.375 307.375 91.375C305.958 90.7083 304.875 89.75 304.125 88.5C303.458 87.1667 302.792 85.75 302.125 84.25C301.708 83.3333 301.292 82.5 300.875 81.75C300.458 80.9167 300 80.0833 299.5 79.25L301.625 78.625L298.875 75.625C298.708 75.375 298.5 75.1667 298.25 75C298 74.75 297.792 74.5 297.625 74.25L297.5 72.25C297.25 66.5 297.125 61.25 297.125 56.5C297.208 51.6667 297.875 47.375 299.125 43.625V42.25C299.375 40.4167 299.625 38.9167 299.875 37.75C300.125 36.5 300.333 35.3333 300.5 34.25C300.75 32.4167 301.125 30.7083 301.625 29.125C302.792 28.875 303.667 28.4167 304.25 27.75C304.833 27 305.333 26.3333 305.75 25.75C306.917 25.6667 307.708 25.8333 308.125 26.25C308.542 26.6667 308.958 27.3333 309.375 28.25C309.792 29 310.292 29.8333 310.875 30.75C311.542 31.6667 312.5 32.375 313.75 32.875C313.917 33.5417 314.125 34.25 314.375 35C314.708 35.6667 315.042 36.4167 315.375 37.25C316.042 38.6667 316.625 40.1667 317.125 41.75C317.708 43.25 318.042 44.7083 318.125 46.125C317.292 47.7083 316.625 49.5417 316.125 51.625C315.708 53.7083 315.417 55.8333 315.25 58C315.167 60.0833 315.208 62.125 315.375 64.125C315.625 66.0417 316 67.6667 316.5 69L317.25 70.625L319.375 70.375C321.875 69.7083 324.125 69 326.125 68.25C328.208 67.4167 330.125 66.4583 331.875 65.375C333.625 64.2917 335.292 63.0417 336.875 61.625C338.458 60.125 340.125 58.4167 341.875 56.5C343.625 54.5833 345.125 52.4167 346.375 50C347.708 47.5 348.792 44.9167 349.625 42.25C350.542 39.5833 351.208 36.9583 351.625 34.375C352.125 31.7083 352.458 29.2083 352.625 26.875C354.042 26.375 354.75 25.375 354.75 23.875L354.5 22.5C354.167 22 354.167 21.4167 354.5 20.75C355 19.1667 356.167 17.9583 358 17.125C359.333 17.9583 360.5 18.875 361.5 19.875C362.583 20.875 363.583 21.875 364.5 22.875Z" fill="black"/>
</svg>
